<?xml version="1.0" encoding="UTF-8"?>
<svg width="24px" height="24px" viewBox="0 0 24 24" version="1.1" xmlns="http://www.w3.org/2000/svg">
    <g stroke="none" stroke-width="1" fill="none" fill-rule="evenodd">
        <path d="M19,3 C20.1045695,3 21,3.8954305 21,5 L21,19 C21,20.1045695 20.1045695,21 19,21 L5,21 C3.8954305,21 3,20.1045695 3,19 L3,5 C3,3.8954305 3.8954305,3 5,3 L19,3 Z M18.5,18.5 L18.5,13.2 C18.5,11.3999999 17.7,10.1 16,10.1 C15.2,10.1 14.5,10.6 14.3,11.1 L14.3,10.3 L12.2,10.3 L12.2,18.5 L14.3,18.5 L14.3,13.7 C14.3,12.9 14.9,12.2 15.7,12.2 C16.5,12.2 16.8,12.9 16.8,13.7 L16.8,18.5 L18.5,18.5 Z M6.9,18.5 L9,18.5 L9,10.3 L6.9,10.3 L6.9,18.5 Z M7.9,6.5 C7,6.5 6.3,7.2 6.3,8.1 C6.3,9 7,9.7 7.9,9.7 C8.8,9.7 9.5,9 9.5,8.1 C9.5,7.2 8.8,6.5 7.9,6.5 Z" fill="#FFFFFF"></path>
    </g>
</svg>
