<?xml version="1.0" encoding="UTF-8"?>
<svg width="24px" height="24px" viewBox="0 0 24 24" version="1.1" xmlns="http://www.w3.org/2000/svg">
    <g stroke="none" stroke-width="1" fill="none" fill-rule="evenodd">
        <path d="M23.498,6.186 C23.2247,5.2738 22.4799,4.5342 21.5682,4.2678 C19.7821,3.7208 12,3.7208 12,3.7208 C12,3.7208 4.2179,3.7208 2.4318,4.2678 C1.5201,4.5342 0.7753,5.2738 0.502,6.186 C0,8.07 0,12 0,12 C0,12 0,15.93 0.502,17.814 C0.7753,18.7262 1.5201,19.4658 2.4318,19.7322 C4.2179,20.2792 12,20.2792 12,20.2792 C12,20.2792 19.7821,20.2792 21.5682,19.7322 C22.4799,19.4658 23.2247,18.7262 23.498,17.814 C24,15.93 24,12 24,12 C24,12 24,8.07 23.498,6.186 Z M9.5454,15.5046 L9.5454,8.4954 L15.8182,12 L9.5454,15.5046 Z" fill="#FFFFFF"></path>
    </g>
</svg>
